<?xml version="1.0" encoding="UTF-8" standalone="no"?>
<!-- Created with Inkscape (http://www.inkscape.org/) -->

<svg
   width="49.62545mm"
   height="49.625496mm"
   viewBox="0 0 49.62545 49.625496"
   version="1.1"
   id="svg11728"
   sodipodi:docname="passwordcheck.svg"
   inkscape:version="1.1.1 (3bf5ae0d25, 2021-09-20, custom)"
   xmlns:inkscape="http://www.inkscape.org/namespaces/inkscape"
   xmlns:sodipodi="http://sodipodi.sourceforge.net/DTD/sodipodi-0.dtd"
   xmlns="http://www.w3.org/2000/svg"
   xmlns:svg="http://www.w3.org/2000/svg">
  <sodipodi:namedview
     id="namedview11730"
     pagecolor="#ffffff"
     bordercolor="#666666"
     borderopacity="1.0"
     inkscape:pageshadow="2"
     inkscape:pageopacity="0.0"
     inkscape:pagecheckerboard="true"
     inkscape:document-units="mm"
     showgrid="false"
     inkscape:zoom="1.92"
     inkscape:cx="63.802083"
     inkscape:cy="153.38542"
     inkscape:window-width="1920"
     inkscape:window-height="1048"
     inkscape:window-x="1920"
     inkscape:window-y="0"
     inkscape:window-maximized="1"
     inkscape:current-layer="layer2" />
  <defs
     id="defs11725" />
  <g
     inkscape:label="Background"
     inkscape:groupmode="layer"
     id="layer1"
     transform="translate(-75.942305,-105.38453)">
    <path
       fill-rule="evenodd"
       clip-rule="evenodd"
       d="m 76.94253,125.32834 c 0,-6.70074 0,-10.0511 1.25111,-12.60129 1.05431,-2.149 2.7092,-3.90124 4.73882,-5.01756 2.4085,-1.32471 5.572737,-1.32471 11.901197,-1.32471 h 11.842753 c 6.32857,0 9.49272,0 11.90122,1.32471 2.02962,1.11632 3.68459,2.86856 4.73869,5.01756 1.25121,2.55019 1.25121,5.90055 1.25121,12.60129 v 9.7378 c 0,6.70084 0,10.05126 -1.25121,12.60131 -1.0541,2.14921 -2.70907,3.90128 -4.73869,5.01756 -2.4085,1.32477 -5.57265,1.32477 -11.90122,1.32477 H 94.833657 c -6.32846,0 -9.492697,0 -11.901197,-1.32477 -2.02962,-1.11628 -3.68451,-2.86835 -4.73882,-5.01756 -1.25111,-2.55005 -1.25111,-5.90047 -1.25111,-12.60131 z"
       fill="#000000"
       id="path5164"
       style="fill:#219521;fill-opacity:1;stroke:#197319;stroke-width:2;stroke-miterlimit:4;stroke-dasharray:none;stroke-opacity:1" />
  </g>
  <g
     inkscape:groupmode="layer"
     id="layer2"
     inkscape:label="Caption">
    <path
       style="fill:#000000;stroke-width:0.0408356"
       d="m 30.65678,31.74352 c -0.372996,-0.05209 -0.661486,-0.215177 -1.069183,-0.604441 -2.028853,-1.937172 -4.112883,-3.972824 -4.221573,-4.123597 -0.204312,-0.283397 -0.310165,-0.679609 -0.283317,-1.060371 0.03891,-0.551479 0.256641,-0.97128 0.664623,-1.281283 0.327209,-0.248628 0.587896,-0.331853 1.039485,-0.331853 0.457531,0 0.743186,0.0925 1.051613,0.340516 0.106594,0.08575 0.846147,0.782705 1.643357,1.548786 0.79721,0.76608 1.460678,1.392873 1.474373,1.392873 0.01424,0 1.357333,-1.695703 2.985898,-3.76823 2.047634,-2.605859 3.011663,-3.801751 3.125213,-3.876901 0.685385,-0.45356 1.564051,-0.382111 2.153202,0.175085 0.268383,0.253833 0.407569,0.480415 0.490365,0.798315 0.161104,0.618485 3.14e-4,1.203874 -0.469602,1.710208 -0.104172,0.112296 -1.738709,2.096909 -3.632165,4.410243 -1.893456,2.313337 -3.490784,4.248997 -3.549596,4.301471 -0.159622,0.142393 -0.566293,0.32744 -0.777958,0.353987 -0.102605,0.01282 -0.232484,0.0289 -0.288632,0.03565 -0.05615,0.0067 -0.20739,-0.0024 -0.336103,-0.02045 z"
       id="path3871" />
  </g>
  <g
     inkscape:groupmode="layer"
     id="layer4"
     inkscape:label="Caption 1">
    <path
       d="m 21.886499,23.886572 v -2.778526 c 0,-2.042272 -1.926828,-3.704701 -4.296308,-3.704701 -2.368942,0 -4.296307,1.662429 -4.296307,3.704701 v 2.778526 c -1.186318,0 -2.148153,0.829391 -2.148153,1.852351 V 30.3698 c 0,1.02296 0.961835,1.85235 2.148153,1.85235 h 8.592615 c 1.186317,0 2.148153,-0.82939 2.148153,-1.85235 v -4.630877 c 0,-1.02296 -0.961836,-1.852351 -2.148153,-1.852351 z m -3.75927,4.488884 v 1.531257 c 0,0.25597 -0.240189,0.463087 -0.537038,0.463087 -0.296847,0 -0.537038,-0.207117 -0.537038,-0.463087 v -1.531257 c -0.315208,-0.161011 -0.537039,-0.445 -0.537039,-0.784183 0,-0.511944 0.480919,-0.926174 1.074077,-0.926174 0.59316,0 1.074078,0.414261 1.074078,0.926174 0,0.339183 -0.221831,0.623172 -0.53704,0.784183 z m 1.611117,-4.488884 h -4.296307 v -2.778526 c 0,-1.022062 0.963413,-1.85235 2.148152,-1.85235 1.184205,0 2.148155,0.830315 2.148155,1.85235 z"
       id="path3771"
       style="stroke-width:0.0311683" />
  </g>
</svg>
